<?xml version="1.0" encoding="UTF-8"?>
<svg width="8px" height="12px" viewBox="0 0 8 12" version="1.1" xmlns="http://www.w3.org/2000/svg" xmlns:xlink="http://www.w3.org/1999/xlink">
    <!-- Generator: Sketch 49 (51002) - http://www.bohemiancoding.com/sketch -->
    <title>about-icon</title>
    <desc>Created with Sketch.</desc>
    <defs></defs>
    <g id="Page-1" stroke="none" stroke-width="1" fill="none" fill-rule="evenodd">
        <g id="about-icon" transform="translate(-8.000000, -6.000000)">
            <polygon id="Shape" points="0 0 24 0 24 24 0 24"></polygon>
            <path d="M11,18 L13,18 L13,16 L11,16 L11,18 Z M12,6 C9.79,6 8,7.79 8,10 L10,10 C10,8.9 10.9,8 12,8 C13.1,8 14,8.9 14,10 C14,12 11,11.75 11,15 L13,15 C13,12.75 16,12.5 16,10 C16,7.79 14.21,6 12,6 Z" id="Shape" fill="#454545" fill-rule="nonzero"></path>
        </g>
    </g>
</svg>