
<svg width="24px" height="24px" viewBox="0 0 24 24" version="1.1" xmlns="http://www.w3.org/2000/svg" xmlns:xlink="http://www.w3.org/1999/xlink">
	<!-- Generator: Sketch 48.2 (47327) - http://www.bohemiancoding.com/sketch -->
	<desc>Created with Sketch.</desc>
	<defs></defs>
	<g id="04---Share-&amp;-Embed" stroke="none" stroke-width="1" fill="none" fill-rule="evenodd">
		<g id="Song-Maker---Share-02" transform="translate(-785.000000, -506.000000)" fill="#FFFFFF">
			<g id="Group-2" transform="translate(785.000000, 487.000000)">
				<path d="M7.32421875,19.9492188 C8.80860117,19.3164031 10.3671793,19 12,19 C13.6328207,19 15.1894457,19.3164031 16.6699219,19.9492188 C18.150398,20.5820344 19.4257759,21.4335884 20.4960938,22.5039062 C21.5664116,23.5742241 22.4179656,24.849602 23.0507812,26.3300781 C23.6835969,27.8105543 24,29.3671793 24,31 C24,32.6328207 23.6835969,34.1894457 23.0507812,35.6699219 C22.4179656,37.150398 21.5664116,38.4257759 20.4960938,39.4960938 C19.4257759,40.5664116 18.150398,41.4179656 16.6699219,42.0507812 C15.1894457,42.6835969 13.6328207,43 12,43 C10.3671793,43 8.81055428,42.6835969 7.33007812,42.0507812 C5.84960197,41.4179656 4.5742241,40.5664116 3.50390625,39.4960938 C2.4335884,38.4257759 1.58203441,37.150398 0.94921875,35.6699219 C0.316403086,34.1894457 0,32.6328207 0,31 C0,29.3671793 0.316403086,27.8105543 0.94921875,26.3300781 C1.58203441,24.849602 2.4335884,23.5742241 3.50390625,22.5039062 C4.5742241,21.4335884 5.84764887,20.5820344 7.32421875,19.9492188 Z M19.2604093,28.4878472 C19.8842656,28.0422431 20.4641234,27.4346103 21,26.6649306 C20.3521492,26.9403949 19.680314,27.1267356 18.9844742,27.2239583 C19.7203048,26.7864561 20.2201822,26.1302127 20.4841214,25.2552083 C19.8122761,25.660303 19.0844546,25.9479158 18.3006351,26.1180556 C17.6207917,25.3726815 16.7769987,25 15.7692308,25 C14.8014536,25 13.9816547,25.3443253 13.3098095,26.0329861 C12.6379642,26.721647 12.3020466,27.5601802 12.3020466,28.5486111 C12.3020466,28.8483811 12.3300397,29.1157396 12.3860268,29.3506944 C10.9543565,29.2777774 9.61268563,28.9131977 8.36097389,28.2569444 C7.10926215,27.6006912 6.04352357,26.7256999 5.16372618,25.6319444 C4.85979618,26.2071788 4.70783345,26.802659 4.70783345,27.4184028 C4.70783345,28.0260447 4.84579961,28.5870923 5.12173606,29.1015625 C5.39767252,29.6160327 5.7715808,30.0352993 6.24347212,30.359375 C5.69159922,30.359375 5.16772772,30.2135431 4.67184192,29.921875 L4.67184192,29.9583333 C4.67184192,30.809032 4.93577718,31.5584458 5.46365561,32.2065972 C5.99153404,32.8547486 6.65937023,33.2679389 7.46718419,33.4461806 C7.21924129,33.5190976 6.91531584,33.5555556 6.55539873,33.5555556 C6.33944846,33.5555556 6.11950241,33.5353011 5.89555399,33.4947917 C6.11150426,34.1996563 6.51740469,34.7708311 7.11326747,35.2083333 C7.70913024,35.6458355 8.38696397,35.8726851 9.14678899,35.8888889 C7.77910396,36.9664406 6.33545808,37.5052083 4.81580805,37.5052083 C4.69583567,37.5052083 4.42390238,37.4849539 4,37.4444444 C5.57563714,38.4814867 7.35520062,39 9.33874382,39 C10.5784583,39 11.7421729,38.8015066 12.8299224,38.4045139 C13.9176719,38.0075212 14.8474438,37.4748297 15.6192661,36.8064236 C16.3910883,36.1380175 17.0549255,35.3703747 17.6107975,34.5034722 C18.1666694,33.6365697 18.5805679,32.7311968 18.8525053,31.7873264 C19.1244427,30.8434559 19.2604093,29.8975742 19.2604093,28.9496528 L19.2604093,28.4878472 Z" id="Twitter-Copy"></path>
			</g>
		</g>
	</g>
</svg>
